<svg width="36" height="33" viewBox="0 0 36 33" fill="none" xmlns="http://www.w3.org/2000/svg">
<rect x="17" y="20" width="2" height="4" fill="#34A853"/>
<path d="M25 13.5C25 14.4849 24.8189 15.4602 24.4672 16.3701C24.1154 17.2801 23.5998 18.1069 22.9497 18.8033C22.2997 19.4997 21.5281 20.0522 20.6788 20.4291C19.8295 20.806 18.9193 21 18 21C17.0807 21 16.1705 20.806 15.3212 20.4291C14.4719 20.0522 13.7003 19.4997 13.0503 18.8033C12.4002 18.1069 11.8846 17.2801 11.5328 16.3701C11.1811 15.4602 11 14.4849 11 13.5L12.6094 13.5C12.6094 14.2585 12.7489 15.0095 13.0198 15.7102C13.2907 16.411 13.6877 17.0477 14.1883 17.584C14.6889 18.1203 15.2831 18.5457 15.9371 18.836C16.5911 19.1262 17.2921 19.2756 18 19.2756C18.7079 19.2756 19.4089 19.1262 20.0629 18.836C20.7169 18.5457 21.3111 18.1203 21.8117 17.584C22.3123 17.0477 22.7093 16.411 22.9802 15.7102C23.2511 15.0095 23.3906 14.2585 23.3906 13.5H25Z" fill="#EA4335"/>
<path d="M25 13.5C25 14.4849 24.8189 15.4602 24.4672 16.3701C24.1154 17.2801 23.5998 18.1069 22.9497 18.8033C22.2997 19.4997 21.5281 20.0522 20.6788 20.4291C19.8295 20.806 18.9193 21 18 21C17.0807 21 16.1705 20.806 15.3212 20.4291C14.4719 20.0522 13.7003 19.4997 13.0503 18.8033C12.4002 18.1069 11.8846 17.2801 11.5328 16.3701C11.1811 15.4602 11 14.4849 11 13.5L12.6094 13.5C12.6094 14.2585 12.7489 15.0095 13.0198 15.7102C13.2907 16.411 13.6877 17.0477 14.1883 17.584C14.6889 18.1203 15.2831 18.5457 15.9371 18.836C16.5911 19.1262 17.2921 19.2756 18 19.2756C18.7079 19.2756 19.4089 19.1262 20.0629 18.836C20.7169 18.5457 21.3111 18.1203 21.8117 17.584C22.3123 17.0477 22.7093 16.411 22.9802 15.7102C23.2511 15.0095 23.3906 14.2585 23.3906 13.5H25Z" fill="url(#paint0_linear)"/>
<rect x="15" y="5" width="6" height="12" rx="3" fill="#4285F4"/>
<defs>
<linearGradient id="paint0_linear" x1="18" y1="6" x2="23.5" y2="11" gradientUnits="userSpaceOnUse">
<stop offset="0.689136" stop-color="#FBBC05"/>
<stop offset="0.689236" stop-color="white" stop-opacity="0"/>
</linearGradient>
</defs>
</svg>
